<?xml version="1.0" encoding="UTF-8"?>
<svg version="1.1" xmlns="http://www.w3.org/2000/svg" width="1024" height="129">
<path d="M0 0 C337.92 0 675.84 0 1024 0 C1024 42.57 1024 85.14 1024 129 C686.08 129 348.16 129 0 129 C0 86.43 0 43.86 0 0 Z " fill="#F6F6F6" transform="translate(0,0)"/>
<path d="M0 0 C110.22 0 220.44 0 334 0 C334 42.57 334 85.14 334 129 C223.78 129 113.56 129 0 129 C0 86.43 0 43.86 0 0 Z " fill="#020202" transform="translate(0,0)"/>
<path d="M0 0 C4.55318701 -0.07468636 9.10600998 -0.12885256 13.65966797 -0.16479492 C15.20562968 -0.1797933 16.75154948 -0.20019887 18.29736328 -0.22631836 C36.72718779 -0.52971444 36.72718779 -0.52971444 43.875 5.375 C47.74238791 10.15236154 48.51473623 14.24276405 48.37890625 20.30078125 C47.62581133 25.66561205 45.34229412 30.67567744 41.47265625 34.515625 C38.4337819 36.71165634 36.81323432 37 33 37 C33.65355469 37.51820312 33.65355469 37.51820312 34.3203125 38.046875 C43.17731424 46.40543075 45.34469476 60.41286335 47 72 C41.39 72 35.78 72 30 72 C29.62488281 70.54207031 29.24976563 69.08414063 28.86328125 67.58203125 C28.34724288 65.65861551 27.83026635 63.7354513 27.3125 61.8125 C27.06822266 60.85279297 26.82394531 59.89308594 26.57226562 58.90429688 C25.06935815 53.40631888 23.83518677 49.45370484 19 46 C16.35990852 45.19904976 16.35990852 45.19904976 13.6875 45.1875 C12.80449219 45.13980469 11.92148437 45.09210938 11.01171875 45.04296875 C10.34785156 45.02878906 9.68398438 45.01460937 9 45 C8.96261719 45.77601562 8.92523437 46.55203125 8.88671875 47.3515625 C8.36791133 55.87628052 6.93223578 63.6829851 5 72 C-0.61 72 -6.22 72 -12 72 C-11.40022019 63.08387028 -10.14875952 54.48053721 -8.49609375 45.703125 C-8.25038768 44.37515577 -8.00520404 43.04708979 -7.76051331 41.71893311 C-7.12290204 38.26574661 -6.47832286 34.8138985 -5.83215332 31.36230469 C-5.17089798 27.82306483 -4.51642084 24.28257222 -3.86132812 20.7421875 C-2.58075284 13.82690254 -1.29279302 6.91301226 0 0 Z " fill="#0E0E0E" transform="translate(757,28)"/>
<path d="M0 0 C4.25004671 -0.07485856 8.49973134 -0.12893167 12.75024414 -0.16479492 C14.19236955 -0.17976508 15.63445036 -0.20014868 17.07641602 -0.22631836 C26.46693571 -0.39232061 34.83858945 -0.40433462 42.9375 4.9375 C46.88918653 8.88918653 47.33479454 12.21598826 47.4375 17.75 C47.35740129 24.16457168 46.2761407 28.2179497 42 33 C41.525625 33.54914062 41.05125 34.09828125 40.5625 34.6640625 C38.04441304 36.81702685 35.20553537 36.697591 32 37 C32 37.66 32 38.32 32 39 C32.60714844 39.25910156 33.21429688 39.51820312 33.83984375 39.78515625 C38.28173006 42.28321528 40.33993725 47.03109487 41.9140625 51.7265625 C42.66328526 54.47371262 43.33771294 57.23081224 44 60 C44.38841756 61.293916 44.78310421 62.58598842 45.1875 63.875 C46 67 46 67 46 72 C40.39 72 34.78 72 29 72 C28.57847656 70.44667969 28.15695312 68.89335938 27.72265625 67.29296875 C27.16931553 65.25780035 26.61592767 63.22264476 26.0625 61.1875 C25.64581055 59.65125977 25.64581055 59.65125977 25.22070312 58.08398438 C24.95322266 57.10107422 24.68574219 56.11816406 24.41015625 55.10546875 C24.04096069 53.74651489 24.04096069 53.74651489 23.66430664 52.36010742 C23.15741044 50.55923805 22.59161425 48.77484276 22 47 C17.71 46.34 13.42 45.68 9 45 C8.566875 47.8153125 8.566875 47.8153125 8.125 50.6875 C7.94324219 51.86183594 7.76148438 53.03617188 7.57421875 54.24609375 C7.19319909 56.73697737 6.8207173 59.22918284 6.45703125 61.72265625 C6.28558594 62.88667969 6.11414063 64.05070312 5.9375 65.25 C5.78152344 66.32765625 5.62554687 67.4053125 5.46484375 68.515625 C5 71 5 71 4 72 C1.13732433 72.07325168 -1.700719 72.09238205 -4.5625 72.0625 C-5.36880859 72.05798828 -6.17511719 72.05347656 -7.00585938 72.04882812 C-9.00393756 72.03700518 -11.00197783 72.01906914 -13 72 C-12.37535855 65.70310947 -11.42448552 59.57783762 -10.1875 53.375 C-8.69197327 45.72343602 -7.30466299 38.06132141 -6 30.375 C-4.26288317 20.19008258 -2.21369298 10.09114301 0 0 Z " fill="#0B0B0C" transform="translate(428,28)"/>
<path d="M0 0 C5.61 0 11.22 0 17 0 C15.875 9 15.875 9 15.24609375 12.9375 C15.1267749 13.68902344 15.00745605 14.44054688 14.88452148 15.21484375 C14.73700439 16.13394531 14.5894873 17.05304687 14.4375 18 C13.963125 20.97 13.48875 23.94 13 27 C21.25 27 29.5 27 38 27 C38 24.69 38 22.38 38 20 C38.44971777 18.10476083 38.90340658 16.20962761 39.421875 14.33203125 C40.5907559 9.61701843 41.23734083 4.79385762 42 0 C47.61 0 53.22 0 59 0 C57.74135416 13.61625958 55.38458587 26.75568967 52.59619141 40.13574219 C50.3860412 50.75387575 48.61685771 61.14330434 48 72 C42.06 72 36.12 72 30 72 C30.58814612 61.53099909 31.66529613 51.0041116 35 41 C26.42 41 17.84 41 9 41 C8.67 44.63 8.34 48.26 8 52 C7.53166487 55.38524847 7.04238775 58.75252961 6.5 62.125 C6.36980469 62.97320312 6.23960937 63.82140625 6.10546875 64.6953125 C5.12504464 70.87495536 5.12504464 70.87495536 4 72 C1.13732433 72.07325168 -1.700719 72.09238205 -4.5625 72.0625 C-5.36880859 72.05798828 -6.17511719 72.05347656 -7.00585938 72.04882812 C-9.00393756 72.03700518 -11.00197783 72.01906914 -13 72 C-12.73614092 69.95742029 -12.46337037 67.91599216 -12.1875 65.875 C-12.03667969 64.73804687 -11.88585937 63.60109375 -11.73046875 62.4296875 C-11.1818976 58.80014206 -10.41050548 55.23979622 -9.6171875 51.65625 C-7.7363302 43.03062579 -6.33973538 34.33908303 -4.9375 25.625 C-4.42968096 22.47070555 -3.91731669 19.31719597 -3.40234375 16.1640625 C-3.29083481 15.46181549 -3.17932587 14.75956848 -3.06443787 14.03604126 C-2.28153267 9.2448173 -1.1866177 4.74647079 0 0 Z " fill="#0E0E0E" transform="translate(894,28)"/>
<path d="M0 0 C6.6 0 13.2 0 20 0 C20.48828125 3.05989583 20.9765625 6.11979167 21.46484375 9.1796875 C21.85551159 11.93821546 21.85551159 11.93821546 23 14 C23.22937232 15.32359405 23.41549228 16.65484079 23.578125 17.98828125 C23.73800903 19.24499634 23.73800903 19.24499634 23.90112305 20.52709961 C24.01625244 21.44628174 24.13138184 22.36546387 24.25 23.3125 C25.63243534 33.99774225 27.43357245 44.5895038 29.37402344 55.18676758 C29.58446289 56.36134521 29.79490234 57.53592285 30.01171875 58.74609375 C30.20209717 59.78435303 30.39247559 60.8226123 30.58862305 61.89233398 C31 65 31 65 31 72 C25.72 72 20.44 72 15 72 C14.67 67.71 14.34 63.42 14 59 C4.76 59 -4.48 59 -14 59 C-14.66 60.98 -15.32 62.96 -16 65 C-16.99 67.31 -17.98 69.62 -19 72 C-24.94 72 -30.88 72 -37 72 C-35.55063185 67.65189556 -34.18168404 64.16419488 -32.09375 60.17578125 C-31.23293823 58.52364624 -31.23293823 58.52364624 -30.35473633 56.83813477 C-29.74267334 55.67467529 -29.13061035 54.51121582 -28.5 53.3125 C-27.8625324 52.09384743 -27.22541 50.87501423 -26.58862305 49.65600586 C-25.317371 47.22437979 -24.04346516 44.79417501 -22.76708984 42.36523438 C-21.25231859 39.48051389 -19.74348431 36.59284417 -18.23828125 33.703125 C-12.32553947 22.37639066 -6.19397769 11.17506621 0 0 Z " fill="#0D0D0D" transform="translate(704,28)"/>
<path d="M0 0 C15.18 0 30.36 0 46 0 C45.34 4.62 44.68 9.24 44 14 C34.1 14 24.2 14 14 14 C13.67 18.29 13.34 22.58 13 27 C21.58 27 30.16 27 39 27 C38.47942079 31.68521286 37.92450033 36.37749836 37 41 C27.76 41 18.52 41 9 41 C9 43.64 9 46.28 9 49 C8.34 51.97 7.68 54.94 7 58 C16.57 58 26.14 58 36 58 C35.67 62.62 35.34 67.24 35 72 C19.16 72 3.32 72 -13 72 C-12.33791312 66.04121806 -11.59061869 60.24054497 -10.51171875 54.36328125 C-10.36842636 53.56884613 -10.22513397 52.77441101 -10.07749939 51.9559021 C-9.6171235 49.40755536 -9.15247224 46.86001172 -8.6875 44.3125 C-8.36940118 42.55904195 -8.05153105 40.80554239 -7.73388672 39.05200195 C-7.10935841 35.60634301 -6.48319671 32.16098663 -5.85595703 28.71582031 C-5.1228737 24.6845199 -4.4005199 20.65139665 -3.68359375 16.6171875 C-3.50030518 15.59069092 -3.3170166 14.56419434 -3.12817383 13.5065918 C-2.8017375 11.67769304 -2.47723885 9.84844697 -2.1550293 8.01879883 C-1.11311492 2.22622984 -1.11311492 2.22622984 0 0 Z " fill="#0D0D0D" transform="translate(498,28)"/>
<path d="M0 0 C15.18 0 30.36 0 46 0 C45 10 45 10 44 14 C34.43 14 24.86 14 15 14 C14.34 18.29 13.68 22.58 13 27 C21.91 27 30.82 27 40 27 C39.34 31.62 38.68 36.24 38 41 C28.76 41.33 19.52 41.66 10 42 C9.01 47.28 8.02 52.56 7 58 C16.57 58 26.14 58 36 58 C35.67 62.62 35.34 67.24 35 72 C19.49 72 3.98 72 -12 72 C-10.87490297 57.37373864 -10.87490297 57.37373864 -9.984375 52.43115234 C-9.7874707 51.32065521 -9.59056641 50.21015808 -9.38769531 49.06600952 C-9.17725586 47.91758575 -8.96681641 46.76916199 -8.75 45.5859375 C-8.53182617 44.36846832 -8.31365234 43.15099915 -8.08886719 41.89663696 C-7.63127306 39.3499808 -7.17062743 36.80387117 -6.70703125 34.25830078 C-5.99577355 30.35178664 -5.29398484 26.44365982 -4.59375 22.53515625 C-4.14637721 20.05198529 -3.69847959 17.56890881 -3.25 15.0859375 C-2.93434082 13.33293839 -2.93434082 13.33293839 -2.61230469 11.54452515 C-2.41540039 10.46554962 -2.21849609 9.3865741 -2.015625 8.27490234 C-1.84321289 7.32594086 -1.67080078 6.37697937 -1.49316406 5.39926147 C-1 3 -1 3 0 0 Z " fill="#0E0E0E" transform="translate(625,28)"/>
<path d="M0 0 C0.93392578 -0.01160156 1.86785156 -0.02320312 2.83007812 -0.03515625 C9.40041348 -0.00779885 15.01009358 1.16091801 21.1875 3.375 C21.04566304 5.12532844 20.89886571 6.87525534 20.75 8.625 C20.66878906 9.59953125 20.58757813 10.5740625 20.50390625 11.578125 C20.23675416 13.93961753 19.83378032 16.09401065 19.1875 18.375 C15.61419529 17.76243348 12.54375455 16.71750182 9.1875 15.375 C2.97024612 13.9176673 -4.71815177 12.68232042 -10.5 16 C-13.05642374 18.21074031 -13.05642374 18.21074031 -13.5 21.4375 C-13.08644852 24.43425566 -13.08644852 24.43425566 -11 26.0625 C-8.18858255 27.22014248 -5.56091448 27.99730804 -2.625 28.75 C5.09655007 30.75342921 12.79483786 33.30854352 17.1875 40.375 C19.74605889 45.49211779 18.62813237 52.81982693 17.125 58.125 C12.76333521 65.44134094 7.93237965 70.70550531 -0.1875 73.5625 C-12.35017077 76.26023525 -25.14567718 74.26394094 -36.8125 70.375 C-37.01924944 64.58601581 -36.40412079 59.94567277 -34.8125 54.375 C-31.61509728 55.38881062 -28.63001388 56.46324237 -25.60546875 57.92578125 C-21.5981361 59.65471506 -18.00703722 59.82348929 -13.6875 59.75 C-12.99785156 59.76160156 -12.30820312 59.77320313 -11.59765625 59.78515625 C-7.19706214 59.75991384 -4.23077566 59.20950942 -0.8125 56.375 C0.08342083 52.77580577 0.08342083 52.77580577 0.1875 49.375 C-4.56762343 46.1708641 -9.4700595 44.85327936 -14.9296875 43.35742188 C-20.74284428 41.66283183 -24.31992518 39.27097342 -28.125 34.4375 C-30.91875874 29.12477846 -30.63150051 23.1798457 -29.8125 17.375 C-27.19430857 10.23869063 -21.29469816 5.25208761 -14.76171875 1.73046875 C-9.95360567 -0.24001721 -5.1248125 -0.06288114 0 0 Z " fill="#0E0E0E" transform="translate(583.8125,26.625)"/>
<path d="M0 0 C2 2 2 2 2.01171875 3.98828125 C1.90472656 4.75527344 1.79773438 5.52226563 1.6875 6.3125 C1.57921875 7.11171875 1.4709375 7.9109375 1.359375 8.734375 C0.9725851 11.17283307 0.54388973 13.59134546 0 16 C-0.639375 15.731875 -1.27875 15.46375 -1.9375 15.1875 C-2.948125 14.795625 -3.95875 14.40375 -5 14 C-5.67804687 13.73574219 -6.35609375 13.47148438 -7.0546875 13.19921875 C-14.29059602 10.55773657 -20.74921217 9.7661226 -28.05078125 12.8359375 C-33.73701443 16.23172405 -37.90719844 22.23009261 -40.3359375 28.3125 C-42.14958067 35.6524206 -42.69574926 44.15637698 -38.6875 50.8125 C-36.90360044 53.23924625 -35.58998452 54.27334366 -33 56 C-24.46949089 56.98230105 -17.36167717 56.64533822 -9.953125 51.99609375 C-8.98632812 51.50302734 -8.98632812 51.50302734 -8 51 C-7.01 51.33 -6.02 51.66 -5 52 C-5.42235682 54.29450585 -5.86336917 56.58558438 -6.3125 58.875 C-6.55613281 60.15117188 -6.79976562 61.42734375 -7.05078125 62.7421875 C-8 66 -8 66 -11 68 C-22.16837688 71.59631634 -34.87624748 73.45805537 -45.81640625 68.3203125 C-53.86949539 63.45100278 -57.11330794 56.66007618 -60 48 C-60.89749825 34.09921316 -58.01478455 20.98588948 -48.9765625 10.1015625 C-35.75469555 -3.95646995 -17.88489315 -6.74551333 0 0 Z " fill="#0E0E0E" transform="translate(876,30)"/>
<path d="M0 0 C22.61341307 -0.88680051 22.61341307 -0.88680051 29.89453125 5.71875 C34.1197463 10.38924533 35.34406347 14.26163168 35.29296875 20.515625 C34.65521814 25.92375014 31.97799163 30.53301255 29 35 C29.59167969 35.3403125 30.18335938 35.680625 30.79296875 36.03125 C36.99797827 39.8372591 41.42758023 43.85666564 43.60546875 50.98046875 C45.33816406 59.84981008 42.85413989 66.16991711 38.375 73.75 C31.64411497 80.12662792 24.59172221 81.56266352 15.5234375 81.43945312 C14.31945312 81.39755859 13.11546875 81.35566406 11.875 81.3125 C10.63234375 81.28994141 9.3896875 81.26738281 8.109375 81.24414062 C5.07238785 81.18573703 2.03602885 81.09607686 -1 81 C-1 77.04 -1 73.08 -1 69 C0.30195313 68.95101562 1.60390625 68.90203125 2.9453125 68.8515625 C4.67189471 68.77649371 6.39845622 68.70094767 8.125 68.625 C8.9809375 68.5940625 9.836875 68.563125 10.71875 68.53125 C15.44144795 68.31327933 19.62818276 67.98530308 24 66 C26.44989482 61.43428693 26.76955662 56.08658156 26 51 C23.8405593 47.37522455 21.83680475 45.6158208 18 44 C15.88185683 43.64088781 15.88185683 43.64088781 13.671875 43.5859375 C12.87265625 43.54726562 12.0734375 43.50859375 11.25 43.46875 C10.425 43.4378125 9.6 43.406875 8.75 43.375 C7.90953125 43.33632812 7.0690625 43.29765625 6.203125 43.2578125 C4.13576618 43.16384164 2.06791373 43.08084436 0 43 C0 39.04 0 35.08 0 31 C0.89203125 30.98582031 1.7840625 30.97164062 2.703125 30.95703125 C3.87359375 30.90933594 5.0440625 30.86164062 6.25 30.8125 C7.99023438 30.76029297 7.99023438 30.76029297 9.765625 30.70703125 C13.12726423 30.25755377 13.12726423 30.25755377 15.40625 27.78125 C17.15613474 24.72752957 17.43521512 23.16028358 17.25 19.6875 C17.19585937 18.36298828 17.19585937 18.36298828 17.140625 17.01171875 C17.09421875 16.34785156 17.0478125 15.68398438 17 15 C13.17254549 13.25314692 9.87557277 12.65113667 5.6875 12.375 C3.810625 12.25125 1.93375 12.1275 0 12 C0 8.04 0 4.08 0 0 Z " fill="#F5F4F4" transform="translate(163,25)"/>
<path d="M0 0 C4.50101609 -0.13539153 8.99792821 -0.23433903 13.5 -0.3125 C15.40265625 -0.3753418 15.40265625 -0.3753418 17.34375 -0.43945312 C24.88811037 -0.53768698 30.26542398 -0.1868918 36 5 C40.27292494 9.1879088 42.75359508 13.29274593 43.30078125 19.3046875 C43.3328317 29.06939265 42.37290846 35.07775375 35.76171875 42.48828125 C32.80396055 45.02631323 29.71370604 45.91149996 26 47 C27.69223786 50.919873 30.28832022 54.07191166 32.9375 57.375 C33.41678955 57.97989258 33.8960791 58.58478516 34.38989258 59.20800781 C36.4497704 61.80706628 38.51853765 64.3989105 40.59179688 66.98730469 C41.63083753 68.28514224 42.66808227 69.58441999 43.70336914 70.88525391 C44.67999714 72.11234466 45.66085205 73.3360851 46.64624023 74.55615234 C50 78.77458686 50 78.77458686 50 81 C32.80871219 83.11450338 32.80871219 83.11450338 26.90234375 78.66796875 C24.82197022 75.85130275 23.0145789 73.0448393 21.26611328 70.02050781 C18.87138442 66.19891582 15.89164271 62.82586992 13 59.375 C11.89323089 58.03078435 10.78888974 56.68456428 9.6875 55.3359375 C9.21699219 54.76407715 8.74648438 54.1922168 8.26171875 53.60302734 C7.0986507 52.12533679 6.04311614 50.56467421 5 49 C3.35 48.67 1.7 48.34 0 48 C0 43.71 0 39.42 0 35 C2.09601563 34.96132812 2.09601563 34.96132812 4.234375 34.921875 C6.07294783 34.86559216 7.91148828 34.80824486 9.75 34.75 C10.67039062 34.73582031 11.59078125 34.72164062 12.5390625 34.70703125 C17.93657566 34.5789809 17.93657566 34.5789809 22.578125 32.078125 C25.64683461 27.59308788 25.64556856 23.3280925 25 18 C23.11484777 15.42362529 21.80665143 14.40332572 19 13 C17.5534758 12.84932786 16.1012066 12.75138964 14.6484375 12.68359375 C13.79765625 12.64169922 12.946875 12.59980469 12.0703125 12.55664062 C11.18085938 12.51732422 10.29140625 12.47800781 9.375 12.4375 C8.4778125 12.39431641 7.580625 12.35113281 6.65625 12.30664062 C4.43768761 12.20043285 2.21886435 12.09970041 0 12 C0 8.04 0 4.08 0 0 Z " fill="#F4F3F4" transform="translate(257,25)"/>
<path d="M0 0 C7.92 0 15.84 0 24 0 C24 3.96 24 7.92 24 12 C21.69 12 19.38 12 17 12 C17 18.27 17 24.54 17 31 C19.31 31 21.62 31 24 31 C24 34.96 24 38.92 24 43 C21.69 43 19.38 43 17 43 C17 51.58 17 60.16 17 69 C19.31 69 21.62 69 24 69 C24 72.96 24 76.92 24 81 C16.08 81 8.16 81 0 81 C0 54.27 0 27.54 0 0 Z " fill="#F5F4F4" transform="translate(129,25)"/>
<path d="M0 0 C8.25 0 16.5 0 25 0 C25 3.96 25 7.92 25 12 C22.36 12 19.72 12 17 12 C17 20.58 17 29.16 17 38 C19.64 38 22.28 38 25 38 C25 41.96 25 45.92 25 50 C22.36 50 19.72 50 17 50 C17 60.56 17 71.12 17 82 C11.39 82 5.78 82 0 82 C0 54.94 0 27.88 0 0 Z " fill="#F2F1F2" transform="translate(33,25)"/>
<path d="M0 0 C6.93 0 13.86 0 21 0 C21 3.96 21 7.92 21 12 C19.35 12 17.7 12 16 12 C16 19.92 16 27.84 16 36 C17.65 36 19.3 36 21 36 C21 39.63 21 43.26 21 47 C19.35 47 17.7 47 16 47 C16 58.22 16 69.44 16 81 C10.72 81 5.44 81 0 81 C0 54.27 0 27.54 0 0 Z " fill="#FAFAFA" transform="translate(226,25)"/>
<path d="M0 0 C4.12612567 -0.13592654 8.24770048 -0.23458442 12.375 -0.3125 C14.10943359 -0.3753418 14.10943359 -0.3753418 15.87890625 -0.43945312 C23.63657069 -0.54902466 29.59453873 0.41054746 36 5 C42.6719605 11.94754507 43.38691829 18.20021006 43.26953125 27.64453125 C42.68970049 34.86300409 40.41035559 40.08684722 35.0625 45 C30.33873305 48.9067337 26.16049338 50.25805634 20.04296875 50.1953125 C18.93115234 50.18886719 17.81933594 50.18242188 16.67382812 50.17578125 C15.52333984 50.15902344 14.37285156 50.14226562 13.1875 50.125 C12.01767578 50.11597656 10.84785156 50.10695312 9.64257812 50.09765625 C6.76163084 50.07413831 3.88078911 50.03826879 1 50 C1 46.04 1 42.08 1 38 C2.15757813 37.97421875 3.31515625 37.9484375 4.5078125 37.921875 C6.04691128 37.86556651 7.58597233 37.8082198 9.125 37.75 C9.88554688 37.73582031 10.64609375 37.72164062 11.4296875 37.70703125 C16.68880412 37.48034519 19.81854767 36.46500411 24 33 C25.40603618 30.18792765 25.24557505 27.75990534 25.3125 24.625 C25.34988281 23.48289062 25.38726562 22.34078125 25.42578125 21.1640625 C24.91713992 17.38425078 23.95489073 16.3134766 21 14 C18.70691037 12.85345518 17.20090344 12.80270883 14.6484375 12.68359375 C13.79765625 12.64169922 12.946875 12.59980469 12.0703125 12.55664062 C11.18085937 12.51732422 10.29140625 12.47800781 9.375 12.4375 C8.4778125 12.39431641 7.580625 12.35113281 6.65625 12.30664062 C4.43768761 12.20043285 2.21886435 12.09970041 0 12 C0 8.04 0 4.08 0 0 Z " fill="#F5F4F5" transform="translate(67,25)"/>
<path d="M0 0 C10.59145274 -0.55528005 10.59145274 -0.55528005 15 3 C16 4 16 4 16.3125 7.75 C16.27178656 10.99544251 16.01242062 11.9795947 14.25 14.875 C10.35372848 18.55481199 7.58601621 19.25204801 2.25 19.125 C1.26515625 19.10695313 0.2803125 19.08890625 -0.734375 19.0703125 C-1.48203125 19.04710938 -2.2296875 19.02390625 -3 19 C-2.37679879 12.56025419 -1.35991738 6.32427599 0 0 Z " fill="#EAEAE9" transform="translate(772,41)"/>
<path d="M0 0 C9.47646349 -0.44809897 9.47646349 -0.44809897 14.1875 0.9375 C16.71543992 3.81412128 16.63881723 6.03399723 16.42578125 9.77734375 C15.79621119 13.063815 14.44024822 14.7631058 12 17 C8.82264477 18.96530377 6.45785724 19.22257519 2.75 19.125 C1.85796875 19.10695313 0.9659375 19.08890625 0.046875 19.0703125 C-0.62859375 19.04710938 -1.3040625 19.02390625 -2 19 C-2.24794402 12.4294834 -1.32388229 6.43028541 0 0 Z " fill="#EFEEEF" transform="translate(442,41)"/>
<path d="M0 0 C0.66 0 1.32 0 2 0 C2.5055539 3.56173477 3.00346114 7.12449819 3.5 10.6875 C3.64308594 11.69490234 3.78617188 12.70230469 3.93359375 13.74023438 C4.06894531 14.71669922 4.20429687 15.69316406 4.34375 16.69921875 C4.46943359 17.59471436 4.59511719 18.49020996 4.72460938 19.4128418 C5 22 5 22 5 27 C-0.61 27 -6.22 27 -12 27 C-11.16941601 22.84708006 -10.35969816 20.36216535 -8.49609375 16.69921875 C-8.00302734 15.72275391 -7.50996094 14.74628906 -7.00195312 13.74023438 C-6.48568359 12.73283203 -5.96941406 11.72542969 -5.4375 10.6875 C-4.91736328 9.66076172 -4.39722656 8.63402344 -3.86132812 7.57617188 C-2.57959638 5.0479854 -1.29233939 2.522776 0 0 Z " fill="#E4E3E3" transform="translate(710,47)"/>
</svg>
