<?xml version="1.0" encoding="UTF-8"?>
<svg version="1.1" xmlns="http://www.w3.org/2000/svg" width="1024" height="633">
<path d="M0 0 C337.92 0 675.84 0 1024 0 C1024 208.89 1024 417.78 1024 633 C686.08 633 348.16 633 0 633 C0 424.11 0 215.22 0 0 Z " fill="#010101" transform="translate(0,0)"/>
<path d="M0 0 C337.92 0 675.84 0 1024 0 C1024 208.89 1024 417.78 1024 633 C686.08 633 348.16 633 0 633 C0 424.11 0 215.22 0 0 Z M36 36 C36 157.77 36 279.54 36 405 C350.16 405 664.32 405 988 405 C988 283.23 988 161.46 988 36 C673.84 36 359.68 36 36 36 Z " fill="#F2F2F2" transform="translate(0,0)"/>
<path d="M0 0 C337.92 0 675.84 0 1024 0 C1024 208.89 1024 417.78 1024 633 C686.08 633 348.16 633 0 633 C0 424.11 0 215.22 0 0 Z M24 24 C24 217.05 24 410.1 24 609 C346.08 609 668.16 609 1000 609 C1000 415.95 1000 222.9 1000 24 C677.92 24 355.84 24 24 24 Z " fill="#000000" transform="translate(0,0)"/>
<path d="M0 0 C5.83135841 -0.06954359 11.66123026 -0.12906886 17.49267578 -0.16479492 C19.46896284 -0.17971574 21.44521779 -0.20005972 23.42138672 -0.22631836 C38.41873161 -0.42034794 53.50783742 -0.34814413 67.375 6.1875 C68.03290527 6.48793213 68.69081055 6.78836426 69.36865234 7.09790039 C82.68699654 13.4467358 90.91301677 23.28726261 96 37 C100.77011592 53.25870497 98.32603894 67.90558946 90.58203125 82.7109375 C87.0507546 88.5073748 82.22546776 92.73834074 77 97 C79.47565465 98.26631951 81.97147931 99.44187688 84.50390625 100.59375 C102.16137626 108.77754286 113.27790586 120.56531822 120.08984375 138.9921875 C125.07547089 155.46829437 123.57004853 176.32417264 115.875 191.625 C109.66659867 202.39229017 102.46232281 210.2906334 92 217 C90.94232422 217.72316406 90.94232422 217.72316406 89.86328125 218.4609375 C82.89764389 222.83933812 74.92822417 224.23239592 67 226 C66.39492615 226.17909409 65.78985229 226.35818817 65.16644287 226.54270935 C62.33074299 227.14126612 59.66126262 227.11932253 56.76269531 227.11352539 C55.50169006 227.11344986 54.24068481 227.11337433 52.94146729 227.11329651 C51.57035279 227.10819028 50.19923869 227.1029743 48.828125 227.09765625 C47.42136689 227.09579028 46.01460812 227.09436722 44.60784912 227.09336853 C40.91219273 227.08955744 37.21657587 227.0797392 33.52093506 227.06866455 C29.74703516 227.05842014 25.97312866 227.05380957 22.19921875 227.04882812 C14.79944429 227.03864682 7.39977829 227.01907159 0 227 C0 215.78 0 204.56 0 193 C3.21621094 192.95101562 6.43242187 192.90203125 9.74609375 192.8515625 C12.88375232 192.79745086 16.02133868 192.74018344 19.15893555 192.68261719 C21.32847647 192.64448988 23.49807712 192.60960957 25.66772461 192.578125 C28.79823047 192.53211986 31.92833094 192.47418561 35.05859375 192.4140625 C36.49820717 192.39673569 36.49820717 192.39673569 37.96690369 192.37905884 C48.29673639 192.15602701 57.81116319 190.51494124 65.7578125 183.43359375 C74.53820573 173.92517797 75.47503298 162.73819319 75.28125 150.40234375 C75.06328301 145.22235828 73.83615236 141.3431508 71 137 C70.66097656 136.38125 70.32195312 135.7625 69.97265625 135.125 C65.68775038 128.04956825 57.79969431 124.07610061 50 122 C46.1611825 121.6690957 42.32807147 121.62780133 38.4765625 121.5859375 C37.37524994 121.56657135 36.27393738 121.5472052 35.13925171 121.5272522 C31.63457901 121.46765072 28.12987312 121.42114838 24.625 121.375 C22.24347555 121.33680238 19.86196466 121.29774961 17.48046875 121.2578125 C11.65371783 121.16036161 5.82710479 121.08063728 0 121 C0 109.45 0 97.9 0 86 C14.4375 85.625 14.4375 85.625 18.93530273 85.52197266 C32.03971714 85.54679851 32.03971714 85.54679851 43.375 79.875 C44.00148438 79.33617187 44.62796875 78.79734375 45.2734375 78.2421875 C49.70494921 72.4872379 50.56018028 66.09149427 50.5 59 C50.49033203 57.81144409 50.49033203 57.81144409 50.48046875 56.59887695 C50.32158254 51.54535465 49.89484221 47.52411722 46.609375 43.47265625 C36.98638935 34.66715724 25.96012305 34.68355065 13.4375 34.375 C9.003125 34.25125 4.56875 34.1275 0 34 C0 22.78 0 11.56 0 0 Z " fill="#F2F2F2" transform="translate(490,107)"/>
<path d="M0 0 C15.82961008 -0.16043524 15.82961008 -0.16043524 22.6796875 -0.1953125 C27.31822462 -0.21904331 31.95644019 -0.24683171 36.59472656 -0.30175781 C40.34250358 -0.34585086 44.08993488 -0.36926757 47.83795166 -0.37950897 C49.25381907 -0.38678856 50.66967182 -0.40099583 52.08538818 -0.42292023 C70.64555201 -0.69840052 88.03871736 3.60749563 101.8371582 16.62597656 C110.32004389 25.06511421 114.58165104 34.66336613 118 46 C118.37125 47.19302734 118.37125 47.19302734 118.75 48.41015625 C123.3125336 66.37513231 120.15309283 88.12478532 110.81738281 104.05493164 C103.31619003 115.72327365 94.54304126 122.52909902 82 128 C81.19820312 128.36222656 80.39640625 128.72445312 79.5703125 129.09765625 C75.1734446 130.93681306 71.67034281 131.29189643 67 131 C70.66760619 135.60943859 74.34787981 140.20744252 78.07421875 144.76953125 C84.37976915 152.489958 90.56966417 160.27081286 96.61767578 168.1953125 C104.13476683 178.00921872 111.76063874 187.73555013 119.51318359 197.36425781 C123.98002803 202.93249548 128.31855057 208.59572465 132.63696289 214.27954102 C133.14864014 214.95299561 133.66031738 215.6264502 134.1875 216.3203125 C134.66832031 216.95485352 135.14914062 217.58939453 135.64453125 218.24316406 C136.85427796 219.81112828 138.11167827 221.34205896 139.375 222.8671875 C141 225 141 225 141 227 C133.31422374 227.22882296 125.6293299 227.38606337 117.94091797 227.49438477 C115.32762836 227.53955313 112.71456504 227.60090364 110.10205078 227.67895508 C106.33829906 227.78855805 102.57756022 227.83926364 98.8125 227.87890625 C97.65073242 227.92535782 96.48896484 227.97180939 95.29199219 228.01966858 C87.30491669 228.02460203 87.30491669 228.02460203 83.52323914 225.05528259 C81.49193947 222.79224235 79.72667086 220.50016787 78 218 C77.09764205 216.86744055 76.18930906 215.73955232 75.26953125 214.62109375 C74.44791236 213.56191412 73.62893816 212.50067817 72.8125 211.4375 C68.77333427 206.2369311 64.66576726 201.09969647 60.5 196 C55.99277575 190.47764112 51.55215066 184.91030614 47.16625977 179.29125977 C43.64624792 174.79336075 40.05140088 170.36016861 36.4375 165.9375 C32.44840063 161.05300819 28.52150435 156.13214542 24.6875 151.125 C23.88441406 150.09117187 23.08132813 149.05734375 22.25390625 147.9921875 C20.78454899 146.04153297 19.37154087 144.04673328 18.02734375 142.0078125 C15.95340171 138.83813536 15.95340171 138.83813536 12 135 C8.04 134.67 4.08 134.34 0 134 C0 122.45 0 110.9 0 99 C5.34832031 98.97873047 5.34832031 98.97873047 10.8046875 98.95703125 C14.28329733 98.92635959 17.76171924 98.88728386 21.24023438 98.84741211 C23.64543951 98.82430999 26.05074469 98.80985481 28.45605469 98.80444336 C31.92706085 98.79509724 35.39651017 98.75397962 38.8671875 98.70703125 C39.93113739 98.7109639 40.99508728 98.71489655 42.09127808 98.71894836 C50.79286174 98.55142358 58.0796502 96.23915035 64.3125 89.9375 C71.55365035 80.28263287 73.45274822 69.90844227 72.33398438 58.11523438 C71.13171976 50.5008918 66.99364825 44.03323356 61.1015625 39.18359375 C53.77161145 35.05538712 47.32947029 34.53745435 39.0625 34.48828125 C37.94182129 34.47033005 36.82114258 34.45237885 35.66650391 34.43388367 C32.11104009 34.37999656 28.55570889 34.3459536 25 34.3125 C22.57940872 34.27930795 20.15883489 34.24481655 17.73828125 34.20898438 C11.825504 34.12185298 5.91331815 34.06159706 0 34 C0 22.78 0 11.56 0 0 Z " fill="#F1F1F1" transform="translate(752,107)"/>
<path d="M0 0 C21.78 0 43.56 0 66 0 C66 11.22 66 22.44 66 34 C59.4 34 52.8 34 46 34 C46 51.16 46 68.32 46 86 C52.6 86 59.2 86 66 86 C66 97.55 66 109.1 66 121 C59.4 121 52.8 121 46 121 C46 144.76 46 168.52 46 193 C52.6 193 59.2 193 66 193 C66 204.22 66 215.44 66 227 C44.22 227 22.44 227 0 227 C0 152.09 0 77.18 0 0 Z " fill="#F3F3F3" transform="translate(397,107)"/>
<path d="M0 0 C22.77 0 45.54 0 69 0 C69 11.22 69 22.44 69 34 C61.41 34 53.82 34 46 34 C46 57.76 46 81.52 46 106 C53.59 106 61.18 106 69 106 C69 117.22 69 128.44 69 140 C61.41 140 53.82 140 46 140 C46 168.71 46 197.42 46 227 C30.82 227 15.64 227 0 227 C0 152.09 0 77.18 0 0 Z " fill="#F2F2F2" transform="translate(130,107)"/>
<path d="M0 0 C20.46 0 40.92 0 62 0 C62 11.22 62 22.44 62 34 C57.05 34 52.1 34 47 34 C47 55.45 47 76.9 47 99 C51.95 99 56.9 99 62 99 C62 110.55 62 122.1 62 134 C57.05 134 52.1 134 47 134 C47 164.69 47 195.38 47 227 C31.49 227 15.98 227 0 227 C0 152.09 0 77.18 0 0 Z " fill="#F0F0F0" transform="translate(664,107)"/>
<path d="M0 0 C7.94819901 -0.06324827 15.89546436 -0.12331252 23.84369659 -0.15525055 C27.54654422 -0.17096597 31.24917931 -0.19189604 34.9519043 -0.22631836 C38.53108198 -0.25937658 42.11005612 -0.2769486 45.68937492 -0.28463173 C47.69138692 -0.29271628 49.69331922 -0.31605727 51.69520569 -0.33988953 C63.49476138 -0.34201121 75.68340837 0.90530499 86.25 6.5625 C86.91128906 6.90837158 87.57257813 7.25424316 88.25390625 7.6105957 C103.22278631 15.79806444 111.81416648 28.68271549 117.03515625 44.6796875 C123.33124536 66.34639091 120.40209616 89.3365043 110.4375 109.4375 C101.34214781 125.46920664 87.91508351 133.52149431 70.72764587 139.05319214 C67.02427094 139.99383527 63.95623928 140.24167462 60.14672852 140.22705078 C59.50197067 140.22734283 58.85721283 140.22763489 58.19291687 140.22793579 C56.08810374 140.22655626 53.98365658 140.21106128 51.87890625 140.1953125 C50.40917657 140.19157745 48.93944438 140.1887328 47.4697113 140.18673706 C43.62115477 140.1791393 39.77275171 140.15952447 35.92425537 140.1373291 C31.29610617 140.11316872 26.66790535 140.1040713 22.039711 140.09242249 C15.0263676 140.07309739 8.01336027 140.03474828 1 140 C1 128.78 1 117.56 1 106 C4.40957031 105.99742187 7.81914062 105.99484375 11.33203125 105.9921875 C14.66507063 105.9693177 17.99786789 105.93630764 21.33081055 105.90234375 C23.63218404 105.88426971 25.93366529 105.87659949 28.23510742 105.87988281 C31.55991604 105.88276455 34.88252892 105.84719221 38.20703125 105.8046875 C39.2220723 105.81378143 40.23711334 105.82287537 41.28291321 105.83224487 C50.33270879 105.65158276 57.90378806 102.35158697 64.375 95.9375 C70.6105851 87.56296419 72.44147545 78.94743038 72.5 68.75 C72.50628418 67.92282471 72.51256836 67.09564941 72.51904297 66.2434082 C72.33485324 57.28338277 69.90180247 48.77582157 63.328125 42.37109375 C55.14607699 35.11564519 47.54955561 34.85802967 36.9140625 34.68359375 C35.85714203 34.66281265 34.80022156 34.64203156 33.71127319 34.62062073 C30.34924555 34.55546009 26.98714263 34.49639639 23.625 34.4375 C21.3398361 34.39428292 19.05467969 34.35066762 16.76953125 34.30664062 C11.1797634 34.19906702 5.58993494 34.09974447 0 34 C0 22.78 0 11.56 0 0 Z " fill="#F2F2F2" transform="translate(225,107)"/>
<path d="M0 0 C5.85326838 -0.02480684 11.70650582 -0.04291055 17.55981445 -0.05493164 C19.54907769 -0.05994564 21.53833727 -0.06675849 23.52758789 -0.07543945 C26.39470322 -0.08763384 29.26176962 -0.09325777 32.12890625 -0.09765625 C33.45276085 -0.10539818 33.45276085 -0.10539818 34.80335999 -0.11329651 C44.57205343 -0.11417453 51.8539345 1.35558116 60 7 C65.62001838 12.82953661 66.39134507 18.85464976 66.45532227 26.59326172 C66.27589946 34.5503506 63.53364908 40.94195095 58.2890625 46.96484375 C54.61105386 50.36824994 50.67580881 52.28235595 46 54 C47.03125 54.66 48.0625 55.32 49.125 56 C58.84893956 64.43002824 61.83284838 83.86976876 64 96 C64 97.32 64 98.64 64 100 C56.41 100 48.82 100 41 100 C40.2575 97.463125 39.515 94.92625 38.75 92.3125 C38.28842886 90.75110433 37.82630779 89.18987095 37.36328125 87.62890625 C36.52813971 84.80804836 35.71446062 81.98463434 34.91796875 79.15234375 C34.43263672 77.46818359 34.43263672 77.46818359 33.9375 75.75 C33.65777344 74.75484375 33.37804687 73.7596875 33.08984375 72.734375 C31.55651411 68.88731138 29.56713931 66.05555251 26.109375 63.7265625 C23.47009491 62.81747713 21.03207657 62.57371976 18.25 62.375 C17.26515625 62.30023437 16.2803125 62.22546875 15.265625 62.1484375 C14.51796875 62.09945312 13.7703125 62.05046875 13 62 C12.83177734 63.76150391 12.83177734 63.76150391 12.66015625 65.55859375 C11.89536095 72.44175142 10.63739859 79.24470462 9.4375 86.0625 C9.20092045 87.41857595 8.96459042 88.77469546 8.72851562 90.13085938 C8.15478996 93.42100042 7.57773058 96.71055984 7 100 C-0.92 100 -8.84 100 -17 100 C-16.55896662 93.605016 -15.96357827 87.6002443 -14.51708984 81.36694336 C-13.65933693 77.44063811 -13.08992067 73.47386124 -12.5 69.5 C-11.80609346 64.82566251 -11.07801583 60.19333824 -10.01953125 55.5859375 C-8.84512281 50.46752043 -8.0184609 45.30853065 -7.1875 40.125 C-4.99863583 26.71130035 -2.51809711 13.35524098 0 0 Z " fill="#0E0E0E" transform="translate(613,452)"/>
<path d="M0 0 C5.85326838 -0.02480684 11.70650582 -0.04291055 17.55981445 -0.05493164 C19.54907769 -0.05994564 21.53833727 -0.06675849 23.52758789 -0.07543945 C26.39470322 -0.08763384 29.26176962 -0.09325777 32.12890625 -0.09765625 C33.45276085 -0.10539818 33.45276085 -0.10539818 34.80335999 -0.11329651 C44.57757421 -0.11417503 51.84567708 1.36244341 60 7 C65.03191882 12.12019809 66.15180191 17.10173539 66.3125 24.0625 C66.22337856 32.88552278 63.99198605 40.93672884 57.859375 47.49609375 C54.29771928 50.3768447 50.18801147 52.20395556 46 54 C47.0725 54.763125 48.145 55.52625 49.25 56.3125 C52.32441091 58.95457187 53.70124431 61.12805169 55 64.95703125 C55.33161133 65.92954834 55.66322266 66.90206543 56.00488281 67.90405273 C57.65637306 73.04206741 59.23911136 78.19388401 60.75 83.375 C61.06582031 84.42816406 61.38164062 85.48132813 61.70703125 86.56640625 C62.15369141 88.09201172 62.15369141 88.09201172 62.609375 89.6484375 C62.87717773 90.55770996 63.14498047 91.46698242 63.42089844 92.40380859 C64 95 64 95 64 100 C56.41 100 48.82 100 41 100 C38.72191183 92.65949367 36.48426562 85.31005184 34.3125 77.9375 C34.09827393 77.21183838 33.88404785 76.48617676 33.66333008 75.73852539 C32.04079078 70.21257947 32.04079078 70.21257947 31.58666992 67.84594727 C31.39306885 67.23678467 31.19946777 66.62762207 31 66 C28.59047977 64.75285597 28.59047977 64.75285597 26 64 C25.01 63.505 25.01 63.505 24 63 C22.12943209 62.7724985 20.25314042 62.59037189 18.375 62.4375 C17.37210938 62.35371094 16.36921875 62.26992188 15.3359375 62.18359375 C14.56507813 62.12300781 13.79421875 62.06242188 13 62 C12.85304687 63.13308594 12.85304687 63.13308594 12.703125 64.2890625 C11.63583005 72.14656151 10.34469885 79.94678971 8.9375 87.75 C8.7631543 88.72662598 8.58880859 89.70325195 8.40917969 90.70947266 C8.24192383 91.62519043 8.07466797 92.5409082 7.90234375 93.484375 C7.75273193 94.30647461 7.60312012 95.12857422 7.44897461 95.97558594 C7 98 7 98 6 100 C-1.59 100 -9.18 100 -17 100 C-15.54683619 88.08405675 -14.01510171 76.32805099 -11.55615234 64.58105469 C-9.01797254 52.43353385 -7.00849754 40.18228765 -5 27.9375 C-3.46512858 18.60269109 -1.70567796 9.30479112 0 0 Z " fill="#0E0E0E" transform="translate(157,452)"/>
<path d="M0 0 C7.92 0 15.84 0 24 0 C23.36155802 5.74597781 22.67060612 11.12334714 21.5625 16.75 C20.1721815 23.82533812 19.1001974 30.84871692 18 38 C29.22 38 40.44 38 52 38 C52.66 32.72 53.32 27.44 54 22 C54.47861167 19.3046606 54.98623515 16.61366189 55.5625 13.9375 C56.55744773 9.27207153 57.32245543 4.74281197 58 0 C65.92 0 73.84 0 82 0 C80.6597762 12.06201421 79.12853562 23.80951147 76.53637695 35.65405273 C74.79975186 43.69069145 73.53867452 51.7801552 72.31591797 59.90820312 C71.87351775 62.8374806 71.41141881 65.76316376 70.9375 68.6875 C70.80214844 69.53699219 70.66679688 70.38648438 70.52734375 71.26171875 C70.10850361 73.43658496 69.59226866 75.59264854 69.04296875 77.73828125 C67.88279396 82.28511513 67.11439891 86.86907317 66.375 91.5 C65.92125 94.305 65.4675 97.11 65 100 C57.08 100 49.16 100 41 100 C42.01771382 91.07543261 43.17418984 82.42792613 45.21875 73.671875 C46.32288264 68.48245159 47.12776732 63.23339606 48 58 C36.45 58 24.9 58 13 58 C13 60.31 13 62.62 13 65 C12.62193974 67.50967661 12.18086157 70.0104216 11.6875 72.5 C11.55359863 73.18416992 11.41969727 73.86833984 11.28173828 74.57324219 C10.86060324 76.71675566 10.43037736 78.85832553 10 81 C9.72205759 82.41134057 9.44470366 83.82279717 9.16796875 85.234375 C7.21718926 95.13124295 7.21718926 95.13124295 6 100 C-1.59 100 -9.18 100 -17 100 C-16.731875 97.31875 -16.46375 94.6375 -16.1875 91.875 C-16.11039795 91.06272949 -16.0332959 90.25045898 -15.95385742 89.41357422 C-15.32121943 83.44119502 -14.0967032 77.67612148 -12.80053711 71.81591797 C-11.51827913 65.70378251 -10.54377896 59.54589301 -9.55133057 53.38122559 C-6.67229752 35.52745348 -3.41144961 17.7588937 0 0 Z " fill="#0F0F0F" transform="translate(802,452)"/>
<path d="M0 0 C9.24 0 18.48 0 28 0 C29.875 12.4375 29.875 12.4375 30.45263672 16.30249023 C31.30138552 21.87321865 32.2638013 27.35616987 33.54443359 32.8425293 C34.40534428 36.91962883 34.85954328 41.05522402 35.375 45.1875 C36.39469327 53.02384612 37.61555047 60.79371106 39.0625 68.5625 C39.23346191 69.48200439 39.40442383 70.40150879 39.58056641 71.34887695 C39.90729072 73.10418502 40.23410895 74.85947562 40.56103516 76.61474609 C41.15890857 79.86347983 41.71973812 83.11445355 42.25 86.375 C42.39953125 87.29023437 42.5490625 88.20546875 42.703125 89.1484375 C43.07782463 92.74752604 43 96.38145911 43 100 C35.74 100 28.48 100 21 100 C19.89564083 93.78797966 19 88.32519167 19 82 C6.79 82.33 -5.42 82.66 -18 83 C-20.97 88.61 -23.94 94.22 -27 100 C-34.59 100 -42.18 100 -50 100 C-49.21363985 96.06819927 -48.58216021 93.79483829 -46.84765625 90.3671875 C-46.40671631 89.48973877 -45.96577637 88.61229004 -45.51147461 87.70825195 C-45.03331299 86.77327881 -44.55515137 85.83830566 -44.0625 84.875 C-43.31335327 83.39422974 -43.31335327 83.39422974 -42.54907227 81.88354492 C-39.18420538 75.25561529 -35.74829432 68.6668114 -32.26391602 62.10107422 C-27.7656785 53.60700199 -23.3880502 45.05131353 -19 36.5 C-12.73628519 24.29561992 -6.42332908 12.12144359 0 0 Z " fill="#0D0D0D" transform="translate(539,452)"/>
<path d="M0 0 C21.12 0 42.24 0 64 0 C63.16385091 6.68919271 62.10825459 13.35047248 61 20 C47.47 20 33.94 20 20 20 C19.67 24.29 19.34 28.58 19 33 C18.67 34.65 18.34 36.3 18 38 C30.21 38 42.42 38 55 38 C54.04664336 44.6734965 53.02505541 51.33713982 52 58 C39.46 58 26.92 58 14 58 C13.67 60.64 13.34 63.28 13 66 C12.01 70.95 11.02 75.9 10 81 C23.53 81 37.06 81 51 81 C49 98 49 98 48 100 C26.55 100 5.1 100 -17 100 C-15.88511749 87.73629243 -15.88511749 87.73629243 -14.6875 82.25 C-13.3590203 75.87200767 -12.17248754 69.4821354 -11.0625 63.0625 C-10.89532471 62.09650879 -10.72814941 61.13051758 -10.5559082 60.13525391 C-9.6604445 54.92784051 -8.78494743 49.71742964 -7.92578125 44.50390625 C-7.74974365 43.43712646 -7.57370605 42.37034668 -7.39233398 41.27124023 C-7.05725516 39.23341071 -6.72458068 37.19518378 -6.39477539 35.15649414 C-5.72163341 31.05156481 -5.02420348 26.97929889 -4.0703125 22.9296875 C-2.42327775 15.34370993 -1.27618286 7.65709713 0 0 Z " fill="#0F0F0F" transform="translate(430,452)"/>
<path d="M0 0 C21.12 0 42.24 0 64 0 C63.34 3.96 62.68 7.92 62 12 C61.67 14.64 61.34 17.28 61 20 C47.47 20 33.94 20 20 20 C19.34 25.94 18.68 31.88 18 38 C30.21 38 42.42 38 55 38 C53 50 53 50 51 58 C38.46 58 25.92 58 13 58 C12.34 63.28 11.68 68.56 11 74 C10.67 76.31 10.34 78.62 10 81 C23.2 81 36.4 81 50 81 C49 96 49 96 48 100 C26.55 100 5.1 100 -17 100 C-16.26073644 93.34662798 -15.4004218 86.81364108 -14.34765625 80.21386719 C-13.93962512 77.61553413 -13.54849053 75.0148255 -13.15625 72.4140625 C-11.58400674 62.13419841 -9.84933997 51.95945345 -7.5625 41.8125 C-4.55980572 27.97081174 -2.32848696 13.97092178 0 0 Z " fill="#0E0E0E" transform="translate(254,452)"/>
<path d="M0 0 C-0.31018604 2.5627992 -0.62306891 5.1252211 -0.9375 7.6875 C-1.02451172 8.40873047 -1.11152344 9.12996094 -1.20117188 9.87304688 C-1.66313805 13.62010584 -2.19167679 17.30792911 -3 21 C-6.10669505 20.5145789 -8.89624538 19.70139234 -11.8125 18.5625 C-21.1554023 15.02641082 -32.51372805 12.40182623 -42.1875 16.3125 C-45.61380801 18.1575856 -45.61380801 18.1575856 -48 21 C-48.73526747 25.12062319 -48.73526747 25.12062319 -48 29 C-43.27800892 33.03543341 -38.03854449 34.4007948 -32.125 36 C-15.42916358 40.5556855 -15.42916358 40.5556855 -10.125 46.875 C-9.57070313 47.51179688 -9.01640625 48.14859375 -8.4453125 48.8046875 C-3.74885554 55.93822483 -3.8881315 65.24444541 -5.46484375 73.40625 C-8.09541168 81.25125731 -14.09710188 88.51628269 -21 93 C-38.21703982 101.37096548 -56.48752312 101.08946014 -74.578125 95.2890625 C-78 94 -78 94 -81 92 C-80.58169634 84.77875787 -80.04538889 77.95432222 -78 71 C-73.04988706 71.96823725 -68.70099096 74.4512025 -64.19140625 76.625 C-56.22799111 80.05599404 -44.43339145 80.99199577 -36.14453125 77.953125 C-33.49906895 76.31476948 -31.41288928 74.82577856 -30 72 C-29.93049459 70.45976004 -29.91547643 68.91665012 -29.9375 67.375 C-29.94652344 66.55773437 -29.95554687 65.74046875 -29.96484375 64.8984375 C-29.97644531 64.27195312 -29.98804688 63.64546875 -30 63 C-34.85376817 59.97190338 -39.1943036 58.23051854 -44.8125 57.0625 C-54.32749774 54.84562625 -62.05876691 52.4036384 -67.84375 44.0625 C-72.32848987 36.06269375 -72.5821652 25.75466599 -70.16015625 16.9453125 C-65.63647428 7.16684844 -57.87647395 0.91363679 -48 -3 C-33.31472941 -7.45312125 -14.38423413 -4.54452531 0 0 Z " fill="#0E0E0E" transform="translate(403,455)"/>
<path d="M0 0 C0.93585938 0.37382812 1.87171875 0.74765625 2.8359375 1.1328125 C3.90714844 1.56207031 3.90714844 1.56207031 5 2 C5.28307925 9.24997422 4.50974035 15.90961228 3 23 C-0.76974678 22.37464481 -3.13896731 20.58828377 -6.25 18.4375 C-14.58383482 13.4861018 -22.60588999 13.68532318 -31.92578125 15.6015625 C-39.9673708 18.27792356 -45.78410744 24.02442806 -49.859375 31.3359375 C-55.07911199 42.39680875 -57.6536475 54.99818713 -54.09375 67.07421875 C-51.33039919 72.29092909 -47.31005299 76.3449735 -42 79 C-29.61462849 79.7960931 -21.03110151 77.8357832 -10.1640625 71.98828125 C-8 71 -8 71 -5 71 C-5.47495052 74.10482706 -5.95568748 77.20873101 -6.4375 80.3125 C-6.63956055 81.63411133 -6.63956055 81.63411133 -6.84570312 82.98242188 C-6.97783203 83.82998047 -7.10996094 84.67753906 -7.24609375 85.55078125 C-7.36654053 86.33106689 -7.4869873 87.11135254 -7.61108398 87.9152832 C-8 90 -8 90 -9 93 C-11.94921875 94.09765625 -11.94921875 94.09765625 -15.6875 95.0625 C-20.81603412 96.38674582 -20.81603412 96.38674582 -25.8203125 98.09765625 C-35.72365236 100.90806351 -49.40185646 100.49135033 -58.78125 96.26171875 C-69.14694686 90.36714113 -75.24929715 83.32423745 -79 72 C-79.61875 70.1746875 -79.61875 70.1746875 -80.25 68.3125 C-83.67241775 52.78716857 -79.81597097 36.49930636 -71.98828125 22.97265625 C-68.77968284 18.17551796 -65.09969103 14.04798322 -61 10 C-60.45988281 9.43796875 -59.91976562 8.8759375 -59.36328125 8.296875 C-43.94289911 -6.46318851 -18.99016577 -8.05465235 0 0 Z " fill="#0F0F0F" transform="translate(775,455)"/>
<path d="M0 0 C2.7302389 -0.1083667 5.45614543 -0.18746694 8.1875 -0.25 C8.95642578 -0.28351563 9.72535156 -0.31703125 10.51757812 -0.3515625 C14.38822976 -0.41801146 16.5540492 -0.24377103 20.015625 1.6484375 C23.14581442 5.3578352 22.62655106 8.41428008 22.421875 13.08203125 C21.7121019 17.99129521 19.73144557 20.66322217 15.875 23.640625 C12.11832947 25.41687683 8.74617403 25.32895513 4.6875 25.1875 C3.57665039 25.16719727 3.57665039 25.16719727 2.44335938 25.14648438 C0.62858925 25.11135979 -1.18580288 25.05755972 -3 25 C-3.16032995 19.12123504 -2.6092534 13.76611905 -1.5 8 C-1.35691406 7.22527344 -1.21382812 6.45054687 -1.06640625 5.65234375 C-0.71727671 3.76704421 -0.35954684 1.88334061 0 0 Z " fill="#EEEEEE" transform="translate(177,471)"/>
<path d="M0 0 C2.37625177 -0.10883596 4.74743976 -0.18766696 7.125 -0.25 C7.79015625 -0.28351563 8.4553125 -0.31703125 9.140625 -0.3515625 C14.24681471 -0.45168387 17.2260081 0.55644979 21 4 C22.29605001 8.8473735 21.41462195 13.7330996 19.875 18.4375 C17.31908719 21.93058083 14.4379381 24.60745064 10.01220703 25.32006836 C7.86950884 25.39212326 5.76635903 25.35067872 3.625 25.25 C2.88894531 25.23195313 2.15289063 25.21390625 1.39453125 25.1953125 C-0.40421736 25.14859176 -2.20228711 25.07686183 -4 25 C-3.5946828 16.33459773 -2.38994476 8.34226001 0 0 Z " fill="#F0F0F0" transform="translate(634,471)"/>
<path d="M0 0 C0.66 0 1.32 0 2 0 C2.57777225 3.9641169 3.14706632 7.92935587 3.70898438 11.89575195 C3.90074412 13.24112675 4.09470165 14.5861904 4.29101562 15.9309082 C4.57498604 17.87885829 4.85004382 19.82810086 5.125 21.77734375 C5.29257812 22.94515381 5.46015625 24.11296387 5.6328125 25.31616211 C6.05233182 29.52502316 6 33.77028277 6 38 C-1.92 38 -9.84 38 -18 38 C-16.41873813 33.25621438 -14.6376543 29.0365194 -12.375 24.625 C-11.66393933 23.22141656 -10.95300586 21.81776867 -10.2421875 20.4140625 C-9.87577148 19.69379883 -9.50935547 18.97353516 -9.13183594 18.23144531 C-7.23727853 14.49627388 -5.3699613 10.74752751 -3.5 7 C-2.82304128 5.64577103 -2.14596966 4.29159849 -1.46875 2.9375 C-0.9840625 1.968125 -0.499375 0.99875 0 0 Z " fill="#E5E5E5" transform="translate(548,478)"/>
</svg>
